PathFileType	4	(X/Y/Z)	C:/Users/beibeiliu/ov580/test_trc/User2\sequence.19_training_dense_left.trc
DataRate	CameraRate	NumFrames	NumMarkers	Units	OrigDataRate	OrigDataStartFrame	OrigNumFrames
120	120	15	19	mm	120	251	500
Frame#	Time	ThumbCMC			ThumbMCP			ThumbIP			ThumbTip			IndexMCP			IndexPIP			IndexTip			MiddleMCP			MiddlePIP			MiddleTip			RingMCP			RingPIP			RingTip			PinkyMCP			PinkyPIP			PinkyTip			BackHand1			BackHand2			BackHand3	
		X0	Y0	Z0	X1	Y1	Z1	X2	Y2	Z2	X3	Y3	Z3	X4	Y4	Z4	X5	Y5	Z5	X6	Y6	Z6	X7	Y7	Z7	X8	Y8	Z8	X9	Y9	Z9	X10	Y10	Z10	X11	Y11	Z11	X12	Y12	Z12	X13	Y13	Z13	X14	Y14	Z14	X15	Y15	Z15	X16	Y16	Z16	X17	Y17	Z17	X18	Y18	Z18	
250	2.08333	-231.752	22.2985	30.7654	-222.134	42.2704	1.4713	-210.691	48.2892	-30.9782	-196.202	43.5576	-50.2446	-244.149	-27.5125	-33.5203	-229.226	-36.8795	-61.0664	-198.469	-17.0576	-76.0617	-228.728	-51.4169	-36.0472	-212.808	-47.0656	-67.5831	-183.28	-24.5101	-71.9639	-212.077	-58.5737	-23.6825	-195.082	-60.9133	-53.3245	-175.613	-34.123	-62.456	-190.689	-60.7065	-7.06509	-176.651	-60.8813	-38.2955	-161.119	-40.5054	-52.6373	-218.994	-45.2131	31.5161	-220.689	-36.1943	62.9164	-241.011	-17.1263	39.355	
251	2.09167	-232.962	28.5093	32.6562	-220.814	44.8705	4.57778	-208.798	50.4063	-29.2525	-194.763	40.0363	-51.1541	-245.732	-26.6345	-34.5067	-233.296	-31.8839	-63.6031	-206.991	-16.0898	-75.4489	-235.069	-46.2139	-36.0781	-218.405	-47.5704	-67.2664	-189.037	-22.7665	-72.8855	-217.432	-59.5657	-27.2618	-204.813	-57.7229	-56.2869	-178.976	-32.8326	-63.352	-194.76	-59.1099	-8.35755	-183.722	-60.9951	-40.6662	-165.941	-36.5735	-55.9397	-222.274	-44.2723	28.2257	-223.308	-36.5955	62.7827	-242.85	-18.3623	38.2713	
252	2.1	-230.497	27.5574	33.1831	-220.565	46.4365	-0.263871	-207.893	53.2623	-28.7652	-192.345	43.5568	-52.4197	-249.982	-21.0934	-32.008	-235.529	-29.7859	-64.3341	-207.454	-13.8627	-75.9692	-239.532	-46.3636	-36.626	-225.892	-44.8979	-68.61	-192.512	-18.6906	-73.4691	-222.672	-56.7791	-27.0581	-212.177	-57.1232	-55.5963	-184.61	-35.5076	-64.4209	-198.161	-63.7986	-12.1635	-189.07	-56.9313	-44.616	-171.962	-35.7786	-56.1689	-223.135	-41.8376	29.3488	-225.449	-35.7145	61.476	-245.557	-14.1632	37.7866	
253	2.10833	-229.159	33.8213	33.8668	-215.457	45.9299	3.07435	-204.247	55.1245	-29.9111	-189.887	44.404	-54.3174	-251.372	-21.2325	-33.6757	-244.463	-23.8317	-63.7515	-215.247	-9.93621	-77.6698	-245.573	-41.7007	-37.4087	-234.175	-42.1534	-69.1979	-199.338	-20.9166	-73.6304	-228.023	-56.5163	-30.1341	-215.939	-56.2402	-57.9047	-187.936	-31.4158	-64.6661	-205.141	-62.0319	-13.8389	-195.106	-57.1578	-46.5953	-176.53	-40.7291	-59.6937	-226.996	-43.4166	26.0099	-226.907	-37.1064	58.3325	-245.995	-8.42596	35.4307	
254	2.11667	-225.424	32.2169	31.1688	-210.122	50.843	3.07947	-197.28	56.1206	-26.3245	-185.215	41.9423	-52.849	-255.5	-8.64005	-32.5816	-247.507	-13.693	-64.9678	-214.285	-2.24206	-76.3499	-250.384	-34.6184	-32.4271	-240.836	-35.4945	-69.5899	-202.3	-14.328	-73.9028	-236.133	-49.612	-27.8076	-225.461	-47.0856	-61.0708	-194.807	-29.0532	-65.0415	-212.539	-59.8655	-14.8681	-206.926	-54.3152	-46.7161	-185.036	-35.8054	-60.902	-232.193	-38.1623	25.3366	-228.905	-32.3466	57.6944	-246.172	-3.9038	38.8301	
255	2.125	-216.511	33.9228	34.8244	-199.256	50.0389	9.27114	-185.526	57.0955	-22.4846	-177.32	41.6438	-48.8201	-256.611	4.45684	-29.3455	-248.373	-1.83232	-63.8056	-217.976	2.91165	-74.6651	-258.855	-16.6611	-35.0496	-248.644	-22.6806	-67.8427	-209.109	-11.0559	-73.9191	-246.456	-35.8194	-28.2678	-235.279	-38.4621	-61.6751	-203.177	-21.2302	-66.8577	-227.309	-51.588	-18.7762	-218.711	-51.3226	-48.8345	-192.845	-34.2235	-62.9877	-236.837	-31.614	24.9467	-233.483	-29.0232	57.9628	-244.601	0.139904	42.0063	
256	2.13333	-208.265	37.9864	41.1215	-188.868	51.2922	12.1533	-177.5	52.8847	-19.6106	-170.4	42.9275	-48.4286	-254.046	19.1277	-25.8631	-248.887	15.82	-62.9119	-216.538	13.3198	-73.5225	-259.703	-8.44574	-31.2761	-253.255	-8.51462	-68.0369	-214.354	-3.08537	-75.3335	-253.14	-24.267	-30.8596	-245.166	-25.913	-60.7565	-211.027	-16.4507	-66.5121	-235.03	-44.2165	-17.8001	-230.697	-36.6787	-49.7534	-204.287	-27.7184	-62.5544	-239.757	-26.6718	24.3345	-237.168	-25.9688	58.4156	-242.743	5.11463	43.7045	
257	2.14167	-200.076	39.556	44.0407	-180.983	51.4613	14.0238	-168.834	52.8715	-14.4774	-164.15	41.9936	-42.742	-253.599	30.667	-26.4657	-247.08	24.0491	-58.5774	-218.257	20.3816	-70.4416	-262.146	10.1398	-30.2272	-251.512	5.49602	-68.3102	-214.47	8.00377	-73.3016	-255.615	-13.7555	-24.7195	-251.779	-13.0316	-58.7111	-217.336	-5.63427	-66.1496	-240.762	-34.8926	-18.1464	-235.844	-27.2516	-50.8965	-209.057	-22.1476	-65.0019	-241.957	-19.3698	23.4759	-238.748	-22.8184	59.134	-239.834	11.6876	40.1528	
258	2.15	-193.783	36.7276	45.3772	-172.478	45.3895	21.4481	-157.22	55.7355	-13.6074	-157.419	44.4175	-39.9693	-247.071	39.8894	-20.7878	-246.131	38.0961	-53.129	-217.303	30.8027	-68.5474	-260.578	18.3358	-26.5042	-251.304	22.3485	-64.7508	-212.809	11.6928	-69.6156	-258.34	-0.0583096	-25.822	-252.559	4.56532	-57.638	-215.43	-0.299739	-65.6256	-247.338	-22.1425	-17.9721	-242.287	-17.2751	-52.1704	-216.978	-14.0973	-61.8516	-243.913	-14.8446	27.2713	-239.188	-15.3535	58.4686	-234.794	17.0412	45.1244	
259	2.15833	-185.727	35.8776	46.7457	-163.759	44.2536	22.0313	-152.281	50.7566	-12.0705	-150.355	43.0094	-39.5893	-240.632	48.9662	-14.1535	-240.212	56.2458	-46.5848	-213.491	43.4715	-65.5005	-256.566	33.1143	-21.3664	-252.549	36.1272	-57.3856	-211.298	23.7988	-67.1296	-259.028	10.7908	-22.745	-255.041	16.1718	-51.8925	-217.072	11.0417	-61.8748	-247.862	-13.3213	-12.1266	-248.608	-6.24042	-47.3339	-219.495	-1.99045	-60.9738	-245.906	-9.08624	30.5934	-238.463	-12.4435	60.5339	-230.208	25.9942	49.4616	
260	2.16667	-180.404	30.41	49.6502	-156.91	39.8435	25.0306	-144.769	45.2336	-6.99075	-146.386	37.7664	-33.8949	-233.259	57.4928	-10.4994	-234.478	61.2865	-39.7621	-208.014	50.5511	-62.2964	-249.442	44.7993	-15.3386	-247.106	50.3367	-51.7957	-209.919	32.4011	-64.6888	-253.057	24.0119	-15.2954	-252.296	31.58	-46.9891	-219.813	18.4021	-59.3206	-253.379	-0.781975	-13.4352	-252.174	9.33908	-41.1612	-222.626	9.02441	-61.4282	-244.363	-2.70835	31.1406	-239.37	-9.87275	61.4406	-225.414	23.2502	51.8347	
261	2.175	-174.695	23.6675	55.2388	-150.343	32.5432	27.6317	-140.661	38.5512	-7.65623	-146.115	33.2271	-33.8388	-220.723	66.572	-3.87416	-221.226	72.6767	-37.4265	-202.167	52.2148	-58.101	-243.741	54.1892	-10.3107	-241.853	58.0898	-47.8183	-212.789	37.9248	-61.081	-251.151	31.1099	-11.2681	-249.945	39.3914	-45.4937	-218.004	26.3711	-56.5142	-250.518	6.01658	-7.34161	-251.546	19.5175	-37.7133	-225.205	16.973	-57.7997	-241.73	6.19333	29.9045	-240.656	-6.06474	60.4833	-217.023	29.2444	56.747	
262	2.18333	-170.033	18.3059	56.0479	-149.102	25.3336	27.8222	-134.77	29.9968	-1.15048	-146.336	28.1282	-34.8943	-214.803	66.2994	-0.800572	-211.328	77.0317	-33.0406	-194.401	54.5183	-55.5377	-234.746	57.9279	-4.73534	-233.758	68.95	-41.2882	-207.271	42.0784	-58.2786	-247.09	39.6646	-8.81789	-243.591	48.7324	-41.1053	-215.575	33.6004	-53.5778	-252.265	13.6683	-6.25673	-249.342	28.4545	-38.3455	-229.128	26.1442	-56.755	-236.886	10.6533	36.5816	-238.107	-6.06471	65.7102	-213.574	24.2952	57.623	
263	2.19167	-163.632	13.4078	57.7413	-141.041	20.8857	28.133	-130.586	25.5659	-4.73379	-145.338	22.5352	-30.8368	-204.297	69.1998	3.74769	-204.8	79.0282	-29.0725	-187.753	61.0224	-50.7976	-228.265	61.7716	-0.982624	-227.311	72.9451	-38.7202	-200.497	44.8583	-56.0296	-239.287	46.055	-3.74974	-240.879	55.4574	-34.3741	-212.247	38.1644	-51.1018	-246.654	17.7661	-3.66389	-244.403	36.0225	-33.4545	-225.05	29.6697	-56.3639	-236.427	10.8867	34.4863	-235.467	-5.65224	65.1186	-206.505	27.3866	57.2724	
264	2.2	-164.857	6.92556	56.0188	-140.217	10.8785	31.118	-128.543	19.7939	-7.09139	-142.404	17.3782	-31.3079	-200.077	66.5636	4.79128	-196.47	80.986	-22.8491	-183.692	60.9225	-49.3281	-225.276	65.6343	-1.25889	-218.878	76.7708	-34.4917	-196.779	50.109	-53.7503	-236.783	46.3508	-2.01104	-232.498	60.5433	-32.352	-209.812	40.2887	-49.5147	-246.708	23.5296	-3.77067	-244.453	39.5245	-29.7764	-224.548	33.0807	-51.1427	-230.55	13.9763	36.2211	-233.015	-2.41738	63.2538	-204.583	23.8388	60.9352	
